<?xml version="1.0" encoding="utf-8"?>
<!-- Generator: Adobe Illustrator 17.0.0, SVG Export Plug-In . SVG Version: 6.00 Build 0)  -->
<!DOCTYPE svg PUBLIC "-//W3C//DTD SVG 1.1//EN" "http://www.w3.org/Graphics/SVG/1.1/DTD/svg11.dtd">
<svg version="1.1" id="Layer_1" xmlns="http://www.w3.org/2000/svg" xmlns:xlink="http://www.w3.org/1999/xlink" x="0px" y="0px"
	 width="255px" height="146px" viewBox="0 0 255 146" enable-background="new 0 0 255 146" xml:space="preserve">
<g>
	<path fill="#E92431" d="M145.226,45.88h24.475v3.026c0,24.265-19.605,43.978-43.873,44.102
		c-22.777,0.109-51.785,0.183-80.459,0.059C20.772,92.976,0.888,72.989,0.888,48.393v-4.046c0-23.038,18.67-41.707,41.707-41.707
		h18.996c7.009,0,12.697,5.679,12.697,12.692c0,7.013-5.688,12.692-12.697,12.692H41.559c-8.273,0-14.984,6.715-14.984,14.98v6.797
		c0,10.214,8.287,18.504,18.499,18.504h81.789c10.177,0,18.415-8.264,18.374-18.445L145.226,45.88z"/>
	<path fill="#23356B" d="M109.773,49.892h-24.48v-3.025c0-24.272,19.611-43.978,43.879-44.095
		c22.776-0.115,51.781-0.19,80.456-0.075c24.603,0.099,44.484,20.087,44.484,44.684v4.045c0,23.031-18.681,41.706-41.709,41.706
		h-18.998c-7.007,0-12.692-5.678-12.692-12.699c0-7.005,5.685-12.684,12.692-12.684h20.039c8.27,0,14.976-6.715,14.976-14.979
		v-6.799c0-10.214-8.279-18.495-18.497-18.495h-81.791c-10.171,0-18.413,8.257-18.375,18.437L109.773,49.892z"/>
	<g>
		<path fill="#000100" d="M25.046,136.501c0.281,0,0.525,0.109,0.73,0.326l2.037,2.21c-1.127,1.397-2.514,2.466-4.16,3.209
			c-1.646,0.743-3.622,1.115-5.928,1.115c-2.063,0-3.917-0.352-5.563-1.057c-1.646-0.704-3.052-1.684-4.218-2.939
			c-1.166-1.256-2.059-2.754-2.68-4.497c-0.622-1.742-0.932-3.644-0.932-5.707c0-2.088,0.346-4,1.038-5.735
			c0.692-1.736,1.665-3.231,2.921-4.487c1.255-1.255,2.757-2.232,4.506-2.931c1.749-0.698,3.68-1.047,5.793-1.047
			c2.062,0,3.865,0.331,5.409,0.99c1.544,0.66,2.866,1.535,3.968,2.623l-1.729,2.402c-0.103,0.154-0.234,0.288-0.394,0.404
			c-0.161,0.115-0.381,0.173-0.663,0.173c-0.295,0-0.596-0.115-0.903-0.346c-0.307-0.231-0.698-0.48-1.172-0.749
			c-0.474-0.269-1.073-0.519-1.797-0.75c-0.724-0.231-1.643-0.346-2.757-0.346c-1.306,0-2.508,0.228-3.603,0.682
			c-1.095,0.455-2.037,1.105-2.825,1.95c-0.788,0.845-1.403,1.874-1.845,3.084c-0.442,1.211-0.663,2.572-0.663,4.083
			c0,1.563,0.221,2.953,0.663,4.17c0.442,1.217,1.041,2.242,1.796,3.074c0.756,0.833,1.646,1.47,2.671,1.912
			c1.025,0.442,2.126,0.663,3.305,0.663c0.704,0,1.342-0.039,1.912-0.115c0.57-0.077,1.095-0.199,1.576-0.365
			c0.48-0.167,0.935-0.381,1.364-0.644c0.429-0.262,0.855-0.586,1.278-0.97c0.128-0.115,0.262-0.208,0.404-0.278
			C24.725,136.536,24.879,136.501,25.046,136.501z"/>
		<path fill="#000100" d="M31.444,143.053v-28.554h4.746v10.972c0.768-0.73,1.614-1.32,2.536-1.768
			c0.922-0.448,2.004-0.672,3.247-0.672c1.076,0,2.03,0.183,2.863,0.548c0.832,0.365,1.528,0.877,2.085,1.537
			c0.557,0.66,0.98,1.448,1.268,2.363c0.288,0.916,0.432,1.925,0.432,3.026v12.548h-4.746v-12.548c0-1.204-0.279-2.136-0.836-2.796
			c-0.557-0.66-1.393-0.99-2.508-0.99c-0.82,0-1.589,0.186-2.306,0.557c-0.718,0.372-1.397,0.878-2.037,1.518v14.258H31.444z"/>
		<path fill="#000100" d="M68.74,143.053h-2.133c-0.449,0-0.801-0.068-1.057-0.202c-0.257-0.134-0.449-0.406-0.576-0.817
			l-0.423-1.402c-0.5,0.449-0.989,0.842-1.47,1.182c-0.481,0.339-0.977,0.625-1.489,0.855c-0.512,0.231-1.057,0.404-1.633,0.519
			c-0.576,0.116-1.217,0.173-1.921,0.173c-0.833,0-1.601-0.113-2.306-0.338c-0.705-0.225-1.31-0.562-1.816-1.012
			c-0.506-0.45-0.9-1.009-1.182-1.677c-0.282-0.668-0.423-1.446-0.423-2.333c0-0.746,0.195-1.481,0.586-2.207
			c0.391-0.726,1.041-1.381,1.95-1.967c0.909-0.585,2.12-1.07,3.632-1.455c1.511-0.386,3.388-0.579,5.63-0.579v-1.161
			c0-1.33-0.279-2.314-0.836-2.953c-0.557-0.639-1.368-0.959-2.431-0.959c-0.768,0-1.409,0.09-1.921,0.269
			c-0.512,0.18-0.958,0.382-1.336,0.605c-0.378,0.225-0.727,0.426-1.047,0.606c-0.32,0.179-0.672,0.269-1.057,0.269
			c-0.32,0-0.596-0.083-0.826-0.25c-0.231-0.166-0.417-0.371-0.557-0.615l-0.865-1.518c2.267-2.075,5.002-3.113,8.205-3.113
			c1.153,0,2.181,0.189,3.084,0.567c0.903,0.378,1.668,0.903,2.296,1.576c0.628,0.673,1.105,1.476,1.432,2.412
			c0.327,0.935,0.49,1.96,0.49,3.074V143.053z M59.517,140.093c0.487,0,0.935-0.044,1.345-0.132c0.41-0.089,0.797-0.221,1.162-0.397
			c0.365-0.177,0.717-0.394,1.057-0.652c0.339-0.258,0.682-0.565,1.028-0.918v-3.3c-1.383,0-2.54,0.087-3.468,0.261
			c-0.929,0.174-1.675,0.397-2.239,0.667c-0.564,0.271-0.964,0.588-1.201,0.949c-0.237,0.361-0.355,0.754-0.355,1.18
			c0,0.839,0.247,1.439,0.74,1.8C58.079,139.913,58.723,140.093,59.517,140.093z"/>
		<path fill="#000100" d="M79.174,117.593c0,0.41-0.083,0.794-0.25,1.153c-0.167,0.359-0.387,0.672-0.663,0.941
			c-0.276,0.269-0.599,0.484-0.97,0.644c-0.372,0.16-0.769,0.24-1.191,0.24c-0.41,0-0.798-0.08-1.163-0.24
			c-0.365-0.16-0.682-0.375-0.951-0.644c-0.269-0.269-0.484-0.582-0.644-0.941c-0.16-0.359-0.24-0.743-0.24-1.153
			c0-0.423,0.08-0.82,0.24-1.192c0.16-0.371,0.375-0.692,0.644-0.96c0.269-0.269,0.586-0.484,0.951-0.644
			c0.365-0.16,0.753-0.24,1.163-0.24c0.423,0,0.82,0.08,1.191,0.24c0.371,0.16,0.695,0.375,0.97,0.644
			c0.275,0.269,0.496,0.589,0.663,0.96C79.091,116.773,79.174,117.17,79.174,117.593z M78.463,123.338v19.715h-4.746v-19.715H78.463
			z"/>
		<path fill="#000100" d="M83.824,143.053v-19.715h2.902c0.615,0,1.019,0.288,1.211,0.865l0.327,1.557
			c0.397-0.41,0.817-0.781,1.259-1.115c0.442-0.333,0.909-0.621,1.403-0.865c0.493-0.243,1.021-0.429,1.585-0.557
			c0.564-0.128,1.179-0.192,1.845-0.192c1.076,0,2.03,0.183,2.863,0.548c0.832,0.365,1.528,0.877,2.085,1.537
			c0.557,0.66,0.98,1.448,1.268,2.363c0.288,0.916,0.432,1.925,0.432,3.026v12.548h-4.746v-12.548c0-1.204-0.279-2.136-0.836-2.796
			c-0.557-0.66-1.393-0.99-2.508-0.99c-0.82,0-1.589,0.186-2.306,0.557c-0.718,0.372-1.397,0.878-2.037,1.518v14.258H83.824z"/>
		<path fill="#000100" d="M114.087,123.031c1.473,0,2.808,0.237,4.006,0.711c1.198,0.474,2.219,1.147,3.065,2.018
			c0.846,0.871,1.499,1.934,1.96,3.189c0.461,1.256,0.692,2.658,0.692,4.208c0,1.563-0.23,2.972-0.692,4.227
			c-0.461,1.256-1.115,2.325-1.96,3.209c-0.845,0.884-1.867,1.563-3.065,2.037c-1.198,0.474-2.533,0.711-4.006,0.711
			c-1.473,0-2.812-0.237-4.016-0.711c-1.204-0.474-2.232-1.153-3.084-2.037c-0.852-0.884-1.512-1.953-1.979-3.209
			c-0.468-1.255-0.702-2.664-0.702-4.227c0-1.55,0.234-2.952,0.702-4.208c0.467-1.255,1.127-2.318,1.979-3.189
			c0.852-0.871,1.88-1.544,3.084-2.018C111.275,123.268,112.614,123.031,114.087,123.031z M114.087,139.69
			c1.64,0,2.853-0.551,3.641-1.653c0.788-1.101,1.182-2.716,1.182-4.842c0-2.126-0.394-3.747-1.182-4.861
			c-0.788-1.115-2.002-1.672-3.641-1.672c-1.665,0-2.895,0.561-3.689,1.681c-0.794,1.121-1.191,2.738-1.191,4.852
			c0,2.113,0.397,3.725,1.191,4.833S112.422,139.69,114.087,139.69z"/>
		<path fill="#000100" d="M141.392,143.053c-0.615,0-1.019-0.288-1.211-0.865l-0.385-1.902c-0.41,0.461-0.839,0.878-1.287,1.249
			c-0.449,0.372-0.932,0.692-1.451,0.961c-0.519,0.269-1.076,0.477-1.672,0.625c-0.596,0.147-1.239,0.221-1.931,0.221
			c-1.076,0-2.063-0.224-2.959-0.673c-0.897-0.448-1.669-1.098-2.315-1.95c-0.647-0.852-1.147-1.905-1.499-3.161
			c-0.353-1.256-0.528-2.69-0.528-4.304c0-1.461,0.198-2.818,0.595-4.074c0.397-1.255,0.967-2.344,1.71-3.267
			c0.743-0.922,1.634-1.643,2.671-2.162c1.038-0.519,2.203-0.778,3.497-0.778c1.102,0,2.044,0.176,2.825,0.528
			s1.479,0.823,2.095,1.412v-10.414h4.746v28.554H141.392z M135.07,139.575c0.986,0,1.826-0.205,2.517-0.615
			c0.692-0.41,1.345-0.993,1.96-1.748v-8.839c-0.538-0.653-1.124-1.114-1.758-1.384c-0.635-0.269-1.317-0.403-2.046-0.403
			c-0.718,0-1.368,0.134-1.951,0.403c-0.583,0.269-1.076,0.676-1.479,1.22c-0.403,0.545-0.714,1.236-0.932,2.075
			c-0.218,0.839-0.327,1.829-0.327,2.969c0,1.153,0.093,2.13,0.279,2.93c0.186,0.801,0.451,1.454,0.797,1.96
			c0.346,0.506,0.768,0.871,1.268,1.095C133.898,139.463,134.456,139.575,135.07,139.575z"/>
		<path fill="#000100" d="M157.571,123.031c1.242,0,2.386,0.198,3.43,0.595c1.044,0.397,1.944,0.977,2.7,1.739
			c0.756,0.762,1.345,1.697,1.768,2.805c0.423,1.108,0.635,2.373,0.635,3.795c0,0.359-0.016,0.656-0.048,0.893
			c-0.032,0.237-0.09,0.423-0.173,0.557c-0.083,0.134-0.195,0.231-0.336,0.288c-0.141,0.058-0.32,0.086-0.538,0.086h-12.183
			c0.141,2.024,0.685,3.511,1.633,4.458c0.948,0.948,2.203,1.422,3.767,1.422c0.768,0,1.431-0.089,1.988-0.269
			c0.558-0.179,1.044-0.377,1.461-0.596c0.416-0.217,0.781-0.416,1.095-0.595c0.313-0.18,0.618-0.269,0.912-0.269
			c0.193,0,0.359,0.039,0.5,0.116c0.141,0.077,0.262,0.186,0.365,0.326l1.384,1.729c-0.525,0.615-1.114,1.131-1.768,1.547
			c-0.653,0.416-1.336,0.749-2.046,0.999c-0.711,0.25-1.435,0.426-2.172,0.528c-0.737,0.103-1.451,0.154-2.142,0.154
			c-1.371,0-2.646-0.228-3.824-0.682c-1.179-0.454-2.203-1.127-3.074-2.018c-0.871-0.89-1.556-1.992-2.056-3.305
			c-0.5-1.313-0.75-2.834-0.75-4.563c0-1.346,0.218-2.61,0.653-3.795c0.436-1.185,1.06-2.216,1.873-3.094
			c0.814-0.877,1.806-1.572,2.979-2.085C154.775,123.287,156.098,123.031,157.571,123.031z M157.667,126.431
			c-1.383,0-2.466,0.391-3.247,1.172c-0.781,0.781-1.282,1.89-1.499,3.324h8.916c0-0.615-0.083-1.194-0.249-1.739
			c-0.167-0.544-0.423-1.021-0.769-1.431c-0.346-0.41-0.781-0.733-1.306-0.97C158.986,126.55,158.371,126.431,157.667,126.431z"/>
		<path fill="#000100" d="M197.23,115.267v4.247h-8.358v23.538h-5.169v-23.538h-8.397v-4.247H197.23z"/>
		<path fill="#000100" d="M204.474,123.031c1.242,0,2.386,0.198,3.43,0.595c1.044,0.397,1.944,0.977,2.7,1.739
			c0.756,0.762,1.345,1.697,1.768,2.805c0.423,1.108,0.635,2.373,0.635,3.795c0,0.359-0.016,0.656-0.048,0.893
			c-0.032,0.237-0.09,0.423-0.173,0.557c-0.083,0.134-0.195,0.231-0.336,0.288c-0.141,0.058-0.32,0.086-0.538,0.086h-12.183
			c0.141,2.024,0.685,3.511,1.633,4.458c0.948,0.948,2.203,1.422,3.767,1.422c0.768,0,1.431-0.089,1.988-0.269
			c0.558-0.179,1.044-0.377,1.461-0.596c0.416-0.217,0.781-0.416,1.095-0.595c0.313-0.18,0.618-0.269,0.912-0.269
			c0.193,0,0.359,0.039,0.5,0.116s0.262,0.186,0.365,0.326l1.384,1.729c-0.525,0.615-1.114,1.131-1.768,1.547
			c-0.653,0.416-1.336,0.749-2.046,0.999c-0.711,0.25-1.435,0.426-2.172,0.528c-0.737,0.103-1.451,0.154-2.142,0.154
			c-1.371,0-2.646-0.228-3.824-0.682c-1.179-0.454-2.203-1.127-3.074-2.018c-0.871-0.89-1.556-1.992-2.056-3.305
			c-0.5-1.313-0.75-2.834-0.75-4.563c0-1.346,0.218-2.61,0.653-3.795c0.436-1.185,1.06-2.216,1.873-3.094
			c0.814-0.877,1.806-1.572,2.979-2.085C201.678,123.287,203.001,123.031,204.474,123.031z M204.57,126.431
			c-1.383,0-2.466,0.391-3.247,1.172c-0.781,0.781-1.282,1.89-1.499,3.324h8.916c0-0.615-0.083-1.194-0.249-1.739
			c-0.167-0.544-0.423-1.021-0.769-1.431c-0.346-0.41-0.781-0.733-1.306-0.97C205.89,126.55,205.274,126.431,204.57,126.431z"/>
		<path fill="#000100" d="M230.721,127.508c-0.141,0.18-0.279,0.321-0.413,0.423c-0.134,0.103-0.33,0.154-0.586,0.154
			c-0.244,0-0.48-0.073-0.711-0.221c-0.231-0.147-0.506-0.314-0.827-0.5c-0.32-0.186-0.701-0.352-1.143-0.5
			c-0.442-0.147-0.99-0.221-1.643-0.221c-0.832,0-1.563,0.151-2.19,0.451c-0.628,0.301-1.15,0.734-1.566,1.297
			c-0.416,0.564-0.727,1.246-0.932,2.046c-0.205,0.801-0.308,1.707-0.308,2.719c0,1.051,0.112,1.986,0.336,2.806
			c0.224,0.82,0.548,1.508,0.97,2.066c0.423,0.557,0.935,0.98,1.537,1.268c0.602,0.288,1.281,0.432,2.037,0.432
			c0.756,0,1.367-0.093,1.835-0.278c0.467-0.186,0.861-0.391,1.182-0.615c0.32-0.224,0.599-0.429,0.836-0.615
			c0.237-0.186,0.503-0.279,0.797-0.279c0.385,0,0.673,0.148,0.865,0.442l1.364,1.729c-0.525,0.615-1.095,1.131-1.71,1.547
			c-0.615,0.416-1.252,0.749-1.912,0.999c-0.66,0.25-1.342,0.426-2.046,0.528c-0.704,0.103-1.402,0.154-2.095,0.154
			c-1.217,0-2.363-0.228-3.44-0.682c-1.076-0.454-2.014-1.118-2.815-1.989c-0.801-0.871-1.435-1.937-1.902-3.199
			c-0.468-1.262-0.702-2.699-0.702-4.314c0-1.447,0.208-2.789,0.625-4.025c0.416-1.236,1.028-2.306,1.835-3.209
			c0.807-0.903,1.806-1.611,2.997-2.123c1.191-0.512,2.562-0.768,4.112-0.768c1.473,0,2.764,0.237,3.872,0.711
			c1.108,0.474,2.104,1.153,2.988,2.036L230.721,127.508z"/>
		<path fill="#000100" d="M235.198,143.053v-28.554h4.746v10.972c0.769-0.73,1.614-1.32,2.537-1.768
			c0.922-0.448,2.005-0.672,3.247-0.672c1.076,0,2.031,0.183,2.863,0.548c0.833,0.365,1.528,0.877,2.085,1.537
			c0.557,0.66,0.98,1.448,1.268,2.363c0.288,0.916,0.433,1.925,0.433,3.026v12.548h-4.746v-12.548c0-1.204-0.279-2.136-0.836-2.796
			c-0.557-0.66-1.393-0.99-2.507-0.99c-0.82,0-1.589,0.186-2.306,0.557c-0.718,0.372-1.397,0.878-2.037,1.518v14.258H235.198z"/>
	</g>
</g>
</svg>
