<?xml version="1.0" encoding="utf-8"?>
<!-- Generator: Adobe Illustrator 17.0.0, SVG Export Plug-In . SVG Version: 6.00 Build 0)  -->
<!DOCTYPE svg PUBLIC "-//W3C//DTD SVG 1.1//EN" "http://www.w3.org/Graphics/SVG/1.1/DTD/svg11.dtd">
<svg version="1.1" id="animatedLogo-0" xmlns:svg="http://www.w3.org/2000/svg"
	 xmlns="http://www.w3.org/2000/svg" xmlns:xlink="http://www.w3.org/1999/xlink" x="0px" y="0px" width="238px" height="293px"
	 viewBox="0 0 238 293" enable-background="new 0 0 238 293" xml:space="preserve">
<g id="Stroke-3">
	<path fill="#0E1937" d="M46.113,292.786c-24.899,0-45.155-19.808-45.155-44.153V44.873c0-24.347,20.256-44.155,45.155-44.155
		h83.496c59.425,0,107.771,47.217,107.771,105.256c0,55.184-44.133,101.311-100.471,105.012c-2.394,0.16-4.852,0.242-7.3,0.242
		l-38.341,0.037v37.368C91.268,272.979,71.011,292.786,46.113,292.786z M46.113,8.035c-20.864,0-37.838,16.525-37.838,36.838v203.76
		c0,20.312,16.974,36.835,37.838,36.835s37.837-16.523,37.837-36.835v-44.679l45.654-0.045c2.29,0,4.582-0.076,6.818-0.226
		c52.51-3.45,93.638-46.369,93.638-97.71c0-54.003-45.063-97.938-100.452-97.938H46.113z M83.95,130.283V81.708h45.658
		c13.661,0,24.775,10.885,24.775,24.265c0,12.724-10.136,23.358-23.074,24.209c-0.566,0.036-1.128,0.053-1.743,0.053L83.95,130.283z
		 M91.268,89.026v33.932l38.295-0.039c0.455,0,0.866-0.012,1.274-0.038c9.097-0.599,16.229-8.025,16.229-16.907
		c0-9.345-7.831-16.948-17.457-16.948H91.268z"/>
</g>
<g id="Stroke-5">
	<path fill="#0E1937" d="M46.113,252.291c-2.021,0-3.659-1.639-3.659-3.659v-80.195c-0.149-0.397-0.23-0.828-0.23-1.277
		c0-0.452,0.081-0.885,0.23-1.285V41.213h87.154c36.543,0,66.272,29.051,66.272,64.759c0,33.956-27.129,62.336-61.761,64.61
		c-1.495,0.099-3.014,0.149-4.511,0.149l-79.838,0.078v77.821C49.771,250.652,48.133,252.291,46.113,252.291z M49.771,48.531
		v114.961l79.834-0.078c1.341,0,2.696-0.045,4.033-0.133c30.8-2.022,54.924-27.195,54.924-57.309
		c0-31.673-26.446-57.442-58.954-57.442H49.771z"/>
</g>
<path id="Combined-Shape" fill="#0E1937" d="M80.306,21.648c6.362,8.858,8.805,19.607,6.88,30.253
	c-1.927,10.653-7.992,19.933-17.077,26.137c-18.757,12.807-44.703,8.348-57.837-9.941C5.91,59.238,3.467,48.491,5.395,37.841
	c1.925-10.651,7.99-19.933,17.077-26.134C41.229-1.101,67.172,3.358,80.306,21.648z M192.563,289.104
	c-13.077,0-25.944-6.014-34.02-17.259l-58.647-81.674c-13.151-18.316-8.596-43.568,10.17-56.4
	c18.767-12.841,44.644-8.394,57.795,9.922l58.647,81.674c13.154,18.316,8.599,43.568-10.168,56.4
	C209.093,286.724,200.786,289.104,192.563,289.104L192.563,289.104z"/>
</svg>
