<svg xmlns="http://www.w3.org/2000/svg" width="32" height="32" viewBox="0 0 32 32">
  <g fill="none" fill-rule="evenodd">
    <circle cx="16" cy="16" r="16" fill="#F5F7F9"/>
    <g fill-rule="nonzero" transform="translate(4 13)">
      <path fill="#B12029" d="M4.59600018,1.15200005 L0.0540000021,1.15200005 L0.0540000021,5.69400023 L4.59600018,5.69400023 L4.59600018,1.15200005 Z M4.39200017,1.35600005 L4.39200017,5.49000022 L0.25800001,5.49000022 L0.25800001,1.35600005 L4.39200017,1.35600005 Z"/>
      <polygon fill="#B12029" points="3.084 2.688 1.572 2.688 1.572 4.2 3.084 4.2"/>
      <polygon fill="#B12029" points="3.084 2.664 1.572 2.664 1.572 4.182 3.084 4.182"/>
      <polygon fill="#B12029" points="6.834 4.344 6.834 .03 4.806 1.068 4.806 1.296 6.684 .33 6.684 4.422"/>
      <polygon fill="#B12029" points="6.126 3.426 6.126 1.884 5.334 2.298 5.334 3.84"/>
      <g fill="#373A36" transform="translate(8.34 1.74)">
        <path d="M1.38000005.0420000017L.0120000005 3.03600012.342000014 3.03600012.702000028 2.23800009 2.37000009 2.23800009 2.73000011 3.03600012 3.06600012 3.03600012 1.69800007.0420000017 1.38000005.0420000017zM.816000032 1.98000008L1.53600006.372000015 2.25600009 1.98000008.816000032 1.98000008zM3.98400016.456000018C4.18200017.348000014 4.39800017.294000012 4.63800018.294000012 5.0040002.294000012 5.30400021.414000016 5.54400022.642000026L5.74200023.438000017C5.61000022.294000012 5.44800022.186000007 5.25600021.114000005 5.0640002.0420000017 4.85400019.00600000024 4.62600018.00600000024 4.32600017.00600000024 4.05000016.0720000029 3.81000015.204000008 3.57000014.336000013 3.38400013.516000021 3.24600013.75000003 3.10800012.984000039 3.04200012 1.24200005 3.04200012 1.53000006 3.04200012 1.81800007 3.10800012 2.07600008 3.24600013 2.31000009 3.38400013 2.5440001 3.57000014 2.72400011 3.81000015 2.85600011 4.05000016 2.98800012 4.32000017 3.05400012 4.62000018 3.05400012 4.83000019 3.05400012 5.0340002 3.02400012 5.22600021 2.95800012 5.41800022 2.89200011 5.58000022 2.79600011 5.72400023 2.67600011L5.72400023 1.53600006 5.41800022 1.53600006 5.41800022 2.5440001C5.20200021 2.70000011 4.9440002 2.77800011 4.63200018 2.77800011 4.39200017 2.77800011 4.17000017 2.72400011 3.97800016 2.6160001 3.78600015 2.5080001 3.63000014 2.35800009 3.52200014 2.17200009 3.40800014 1.98600008 3.35400013 1.77000007 3.35400013 1.53600006 3.35400013 1.30200005 3.40800014 1.09200004 3.52200014.900000036 3.63600014.714000028 3.78600015.564000022 3.98400016.456000018zM8.47200034.210000008C8.23200033.0780000031 7.96800032.0120000005 7.6680003.0120000005 7.37400029.0120000005 7.10400028.0780000031 6.86400027.210000008 6.62400026.342000014 6.43200026.522000021 6.30000025.75600003 6.16200024.990000039 6.09600024 1.24800005 6.09600024 1.53600006 6.09600024 1.82400007 6.16200024 2.08200008 6.30000025 2.31600009 6.43800026 2.5500001 6.62400026 2.73000011 6.86400027 2.86200011 7.10400028 2.99400012 7.37400029 3.06000012 7.6680003 3.06000012 7.96200032 3.06000012 8.23200033 2.99400012 8.47200034 2.86200011 8.71200035 2.73000011 8.89800035 2.5500001 9.03600036 2.31600009 9.17400036 2.08200008 9.24000037 1.82400007 9.24000037 1.53600006 9.24000037 1.24800005 9.17400036.990000039 9.03600036.75600003 8.89800035.528000021 8.71200035.342000014 8.47200034.210000008zM8.76600035 2.17200009C8.65800034 2.36400009 8.50800034 2.5080001 8.31600033 2.6160001 8.12400032 2.72400011 7.90800031 2.77800011 7.6740003 2.77800011 7.4400003 2.77800011 7.22400029 2.72400011 7.03200028 2.6160001 6.84000027 2.5080001 6.69000027 2.35800009 6.57600026 2.17200009 6.46800026 1.98000008 6.41400025 1.77000007 6.41400025 1.53600006 6.41400025 1.30200005 6.46800026 1.09200004 6.57600026.900000036 6.68400027.708000028 6.84000027.564000022 7.03200028.456000018 7.22400029.348000014 7.4400003.294000012 7.6740003.294000012 7.90800031.294000012 8.12400032.348000014 8.31600033.456000018 8.50800034.564000022 8.65800034.714000028 8.76600035.900000036 8.87400035 1.09200004 8.92800035 1.30200005 8.92800035 1.53600006 8.92800035 1.77600007 8.87400035 1.98600008 8.76600035 2.17200009z"/>
        <rect width="1" height="2.994" x="12.498" y=".042"/>
        <path d="M14.8380006 2.77800011C14.6040006 2.77800011 14.3880006 2.72400011 14.1900006 2.6160001 13.9980006 2.5080001 13.8420006 2.35800009 13.7340005 2.17200009 13.6260005 1.98600008 13.5720005 1.77000007 13.5720005 1.53600006 13.5720005 1.30200005 13.6260005 1.09200004 13.7340005.900000036 13.8420006.714000028 13.9980006.564000022 14.1900006.456000018 14.3820006.348000014 14.5980006.294000012 14.8380006.294000012 15.1920006.294000012 15.4920006.414000016 15.7260006.648000026L15.9300006.444000018C15.7980006.300000012 15.6360006.192000008 15.4500006.120000005 15.2640006.0480000019 15.0540006.00600000024 14.8320006.00600000024 14.5380006.00600000024 14.2680006.0720000029 14.0280006.204000008 13.7880005.336000013 13.6020005.516000021 13.4640005.75000003 13.3260005.984000039 13.2600005 1.24200005 13.2600005 1.53000006 13.2600005 1.81800007 13.3260005 2.07600008 13.4640005 2.31000009 13.6020005 2.5440001 13.7880005 2.72400011 14.0220006 2.85600011 14.2620006 2.98800012 14.5260006 3.05400012 14.8260006 3.05400012 15.0480006 3.05400012 15.2520006 3.01800012 15.4440006 2.94000012 15.6360006 2.86200011 15.7920006 2.75400011 15.9240006 2.6100001L15.7200006 2.4060001C15.4920006 2.65800011 15.1980006 2.77800011 14.8380006 2.77800011zM11.3040004 1.99800008L11.2920004 1.99800008C11.4960005 1.92600008 11.6580005 1.81200007 11.7720005 1.65600007 11.8920005 1.49400006 11.9520005 1.29600005 11.9520005 1.06200004 11.9520005.74400003 11.8440005.49200002 11.6280005.306000012 11.4120005.126000005 11.1120004.0300000012 10.7280004.0300000012L9.60600038.0300000012 9.60600038 3.02400012 9.92400039 3.02400012 9.92400039 2.89200011 9.92400039 2.07600008 9.92400039 1.80600007 9.92400039 1.15200005 9.92400039.306000012 10.7220004.306000012C11.0160004.306000012 11.2440004.372000015 11.4000005.49800002 11.5560005.630000025 11.6340005.816000032 11.6340005 1.05600004 11.6340005 1.29000005 11.5560005 1.47600006 11.4000005 1.60800006 11.2920004 1.69800007 11.1480004 1.75800007 10.9680004 1.78800007L10.9680004 2.06400008 11.6520005 3.02400012 11.8620005 3.02400012 12.0420005 3.02400012 11.3040004 1.99800008z"/>
      </g>
    </g>
  </g>
</svg>
