<svg xmlns="http://www.w3.org/2000/svg" width="32" height="32" viewBox="0 0 32 32">
  <g fill="none">
    <circle cx="15.77" cy="15.77" r="15.77" fill="#2E3148"/>
    <circle cx="15.77" cy="15.77" r="9.15" fill="#1B1E36"/>
    <path fill="#6F7390" d="M15.802123,2.01160937 C14.099992,2.01160937 12.7196593,8.18589986 12.7196593,15.802123 C12.7196593,23.4183461 14.0994992,29.5921438 15.802123,29.5921438 C17.504254,29.5921438 18.8845866,23.4183461 18.8845866,15.802123 C18.8845866,8.18589986 17.504254,2.01160937 15.802123,2.01160937 Z M16.0150126,28.8135199 C15.8203566,29.0732255 15.6257006,28.8785695 15.6257006,28.8785695 C14.8416559,27.9698464 14.4493871,26.2824994 14.4493871,26.2824994 C13.0784177,21.8699687 13.4046513,12.395397 13.4046513,12.395397 C14.0492336,4.87280584 15.2220975,3.09626205 15.6202798,2.70202209 C15.7045877,2.61894995 15.8364275,2.60855249 15.932715,2.67738209 C16.5112621,3.08689885 16.9971629,4.80233545 16.9971629,4.80233545 C18.4302251,10.1235892 18.3006187,15.1205807 18.3006187,15.1205807 C18.4302251,19.4685546 17.5821164,24.3359396 17.5821164,24.3359396 C16.9291565,28.034896 16.0150126,28.8135199 16.0150126,28.8135199 Z"/>
    <path fill="#6F7390" d="M27.7633632,8.93939098 C26.9157473,7.46246955 20.87402,9.33757333 14.2655728,13.1281905 C7.65564712,16.9188077 2.99326686,21.1884264 3.83989716,22.664855 C4.68702026,24.1412836 10.7292404,22.2661798 17.3381804,18.4760555 C23.9476133,14.6854383 28.6104863,10.4153268 27.7633632,8.93939098 Z M4.62147787,22.4618214 C4.29721551,22.420919 4.3706427,22.1538215 4.3706427,22.1538215 C4.76833225,21.0223528 6.03532091,19.8425897 6.03532091,19.8425897 C9.18184855,16.4570541 17.56339,12.0253042 17.56339,12.0253042 C24.4078884,8.84083099 26.5338274,8.97487257 27.0729505,9.12271255 C27.1875762,9.15433681 27.2625842,9.2641402 27.2503585,9.38241813 C27.1853089,10.0886004 25.936061,11.3634739 25.936061,11.3634739 C22.0360423,15.2565935 17.6368172,17.6318892 17.6368172,17.6318892 C13.929976,19.9086249 9.28582934,21.5940007 9.28582934,21.5940007 C5.75245374,22.8673958 4.62197067,22.4613286 4.62197067,22.4613286 L4.62147787,22.4618214 Z"/>
    <path fill="#6F7390" d="M27.7337952,22.7131494 C28.5878175,21.2401704 23.9372645,16.9508397 17.3505004,13.1321329 C10.7637364,9.31391893 4.72398026,7.41516075 3.87045076,8.89060378 C3.01692125,10.3665396 7.66698152,14.6534063 14.2567024,18.4716203 C20.846916,22.290327 26.8802657,24.1890852 27.7337952,22.7136422 L27.7337952,22.7131494 Z M4.43618509,9.46028052 C4.30953551,9.16115095 4.57663308,9.08920216 4.57663308,9.08920216 C5.75541054,8.86645658 7.41171115,9.37354773 7.41171115,9.37354773 C11.917381,10.3995572 19.9514985,15.4320302 19.9514985,15.4320302 C26.1371234,19.7602921 27.0862561,21.6669351 27.2281825,22.2080295 C27.2582034,22.3227637 27.2011772,22.4424356 27.0931553,22.4913894 C26.4480802,22.7865766 24.7208164,22.3465062 24.7208164,22.3465062 C19.396113,20.9188648 15.1373359,18.3030827 15.1373359,18.3030827 C11.3112371,16.2392365 7.52801194,13.0641265 7.52801194,13.0641265 C4.65301707,10.6430004 4.43766349,9.46175892 4.43766349,9.46175892 L4.43618509,9.45929492 L4.43618509,9.46028052 Z"/>
    <circle cx="15.77" cy="15.77" r="1.622" fill="#B7B9C8"/>
    <ellipse cx="22.421" cy="9.54" fill="#B7B9C8" rx="1" ry="1"/>
    <ellipse cx="6.976" cy="12.849" fill="#B7B9C8" rx="1" ry="1"/>
    <ellipse cx="13.855" cy="24.79" fill="#B7B9C8" rx="1" ry="1"/>
  </g>
</svg>
