<svg xmlns="http://www.w3.org/2000/svg" width="32" height="32" viewBox="0 0 32 32">
  <defs>
    <linearGradient id="dfinity-a" x1="26.031%" x2="93.177%" y1="22.331%" y2="78.932%">
      <stop offset="21%" stop-color="#F15A24"/>
      <stop offset="68.41%" stop-color="#FBB03B"/>
    </linearGradient>
    <linearGradient id="dfinity-b" x1="73.914%" x2="6.769%" y1="77.639%" y2="21.038%">
      <stop offset="21%" stop-color="#ED1E79"/>
      <stop offset="89.29%" stop-color="#522785"/>
    </linearGradient>
  </defs>
  <g fill="none" fill-rule="evenodd">
    <circle cx="16" cy="16" r="16" fill="#18132B"/>
    <g fill-rule="nonzero" transform="translate(4 10)">
      <path fill="url(#dfinity-a)" d="M17.9405,0 C16.6245,0 15.1889,0.701453333 13.6735,2.08432 C12.9557,2.73567 12.3276,3.43713333 11.869,3.9983 C11.869,3.9983 12.6067667,4.83 13.4143,5.72186667 C13.8529667,5.18073333 14.4810333,4.44923333 15.2088333,3.78786667 C16.5547333,2.55529667 17.4320333,2.30477667 17.9405,2.30477667 C19.8347333,2.30477667 21.3700333,3.858 21.3700333,5.782 C21.3700333,7.68593333 19.8347333,9.23916667 17.9405,9.2592 C17.8507667,9.2592 17.7411,9.24916667 17.6115,9.2191 C18.1598333,9.46963333 18.758,9.65 19.3163,9.65 C22.7857333,9.65 23.4636667,7.30513333 23.5035333,7.1348 C23.6032333,6.7039 23.6630333,6.25296667 23.6630333,5.792 C23.6530667,2.59538 21.0909,0 17.9405,0 Z"/>
      <path fill="#29ABE2" d="M19.3065,9.56986667 C17.5319,9.51973333 15.6875333,8.06673333 15.3087,7.706 C14.3316667,6.77406667 13.4144667,5.71186667 13.4144667,5.71186667 C12.6069333,4.82 11.8691667,3.98826667 11.8691667,3.98826667 C11.6099667,4.29893333 10.3338667,5.77196667 10.3338667,5.77196667 C10.3338667,5.77196667 11.1912333,6.6939 11.2610333,6.77406667 C12.9359333,8.8183 15.4582333,11.5439333 17.9506333,11.5439333 C20.6424333,11.5339333 22.9055333,9.64 23.5037,7.10473333 C23.4538333,7.2851 22.5566,9.66003333 19.3065,9.56986667 Z"/>
      <path fill="url(#dfinity-b)" d="M5.8279,11.5539667 C7.14386667,11.5539667 8.5795,10.8525333 10.0948667,9.46966667 C10.8127,8.8183 11.4407667,8.11683333 11.8993667,7.5557 C11.8993667,7.5557 11.1616333,6.72396667 10.3541,5.8321 C9.91543333,6.37323333 9.28733333,7.10476667 8.55956667,7.76613333 C7.21366667,8.98866667 6.32636667,9.2492 5.8279,9.2492 C3.93366667,9.2492 2.39834667,7.69596667 2.39834667,5.772 C2.39834667,3.86803333 3.93366667,2.31482333 5.8279,2.29478 C5.91763333,2.29478 6.02726667,2.30480333 6.1569,2.33486333 C5.60856667,2.08434667 5.01036667,1.90397 4.4521,1.90397 C0.982663333,1.90397 0.30473,4.24883333 0.264853333,4.4192 C0.165156667,4.85006667 0.105338667,5.301 0.105338667,5.76196667 C0.105338667,8.9586 2.66752667,11.5539667 5.8279,11.5539667 Z"/>
      <path fill="#29ABE2" d="M4.45186667,1.95405 C6.22646667,2.00415333 8.0808,3.4772 8.45966667,3.83796667 C9.43666667,4.7699 10.3538667,5.8321 10.3538667,5.8321 C11.1614,6.72393333 11.8991667,7.55566667 11.8991667,7.55566667 C12.1583667,7.24503333 13.4344667,5.77196667 13.4344667,5.77196667 C13.4344667,5.77196667 12.5771,4.85006667 12.5073,4.7699 C10.8424,2.72565 8.32006667,0 5.82766667,0 C3.1359,0.0100207667 0.872786667,1.90394667 0.27461,4.4392 C0.304516667,4.26883333 1.19181333,1.87388333 4.45186667,1.95405 Z"/>
    </g>
  </g>
</svg>
