<svg xmlns="http://www.w3.org/2000/svg" width="32" height="32" viewBox="0 0 32 32">
  <g fill="none" fill-rule="evenodd">
    <circle cx="16" cy="16" r="16" fill="#18132B"/>
    <g fill="#FF564F" fill-rule="nonzero" transform="translate(5.5 12.5)">
      <polygon points=".298 6.346 2.73 3.183 .298 0 .007 1.142 1.573 3.183 .079 5.103" opacity=".2" transform="translate(.596)"/>
      <polygon points="4.598 6.346 2.151 3.183 4.592 0 5.75 0 3.308 3.183 5.768 6.346"/>
      <rect width="1" height="6.346"/>
      <g transform="translate(6.286 1.162)">
        <path d="M2.29517566,0.00429004796 C1.93469246,0.00429004796 1.60992987,0.0435559036 1.32982549,0.120985311 C1.0523726,0.19784867 0.774711161,0.301405661 0.504557307,0.428796252 L0.430881692,0.463563516 L0.706517273,1.22311055 L0.795208057,1.18125279 C1.01310674,1.0784406 1.2385428,0.995618839 1.46520034,0.935111287 C1.69010014,0.875229368 1.94425569,0.844901112 2.22057649,0.844901112 C2.64961108,0.844901112 2.97800829,0.948041015 3.20871754,1.15146079 C3.43609008,1.35199074 3.54524797,1.65506475 3.54524797,2.05228149 L3.54524797,2.08320558 C3.36649597,2.03443608 3.17770407,1.9941275 2.98870362,1.96308424 C2.75805396,1.92518881 2.4849507,1.90594318 2.17091323,1.90594318 C1.86012309,1.90594318 1.57307717,1.94148504 1.31466136,2.0116452 C1.05353449,2.08266932 0.8252086,2.18753716 0.634539802,2.32335889 C0.440057628,2.46177252 0.291008253,2.63730698 0.185574366,2.84507639 C0.0801702713,3.05254788 0.0297622077,3.29666352 0.0297622077,3.57072013 L0.0297622077,3.58936992 C0.0297622077,3.8519864 0.0825536312,4.08603235 0.191979646,4.28495353 C0.300184189,4.48169989 0.443453916,4.64957781 0.620388602,4.78382056 C0.796429529,4.91755685 1.00020681,5.01819423 1.22722184,5.08290245 C1.4519429,5.14701483 1.68256277,5.1795477 1.91327201,5.1795477 C2.34963543,5.1795477 2.71446826,5.09234651 3.0100049,4.92041688 C3.22009808,4.79812072 3.39625818,4.65976668 3.54521818,4.50752956 L3.54521818,5.18380795 L4.43897817,5.18380795 L4.43897817,2.04191387 C4.43897817,1.41118744 4.26365225,0.913184376 3.91225561,0.561787739 C3.54232835,0.191830686 3.00014375,0.00429004796 2.29517566,0.00429004796 Z M2.05806113,4.4135358 C1.90609214,4.4135358 1.75999218,4.39294953 1.62366399,4.35225366 C1.48855727,4.31212383 1.36789967,4.2541486 1.26490872,4.17987715 C1.16492677,4.1078103 1.09157887,4.01652761 1.0333653,3.90844224 C0.975717783,3.80166771 0.953343991,3.68020573 0.953343991,3.54742278 L0.953343991,3.52877299 C0.953343991,3.26615651 1.05436866,3.06080026 1.27625948,2.90102577 C1.50440661,2.7366633 1.83199944,2.65336487 2.25662481,2.65336487 C2.54664993,2.65336487 2.80920682,2.67469594 3.03214036,2.71676225 C3.23067424,2.75438954 3.39628797,2.79460874 3.57503997,2.83661546 L3.57503997,3.21345447 C3.57503997,3.38958477 3.53222886,3.55177242 3.45590176,3.69563798 C3.37862131,3.84144003 3.26889738,3.96924771 3.13385024,4.07551577 C2.99725392,4.18288614 2.83518545,4.26686978 2.65416926,4.32508335 C2.47208055,4.38377359 2.2708356,4.4135358 2.05806113,4.4135358 Z"/>
        <polygon points="7.814 3.941 6.252 .089 5.264 .089 7.459 5.184 8.149 5.184 10.355 .089 9.385 .089"/>
        <path d="M14.7838926,0.561787739 C14.4139355,0.191830686 13.8690696,0.00426025596 13.1641313,0.00426025596 C12.8036481,0.00426025596 12.4789451,0.0435261116 12.1988705,0.120955519 C11.9214177,0.197818878 11.6438158,0.301375869 11.3736322,0.42876646 L11.2999863,0.463533724 L11.5756219,1.22308076 L11.6643425,1.181223 C11.8822412,1.07841081 12.1076772,0.995589047 12.3343348,0.935081495 C12.5592346,0.875199576 12.8133901,0.84487132 13.0897109,0.84487132 C13.5187455,0.84487132 13.8496155,0.948011223 14.0803247,1.151431 C14.3076972,1.35199074 14.4193279,1.65506475 14.4193279,2.05228149 L14.4193279,2.08320558 C14.2405759,2.03443608 14.0493112,1.9941275 13.8603108,1.96308424 C13.6296611,1.92518881 13.3553066,1.90594318 13.0412989,1.90594318 C12.7305088,1.90594318 12.4428372,1.94148504 12.1844214,2.0116452 C11.9232945,2.08266932 11.6946707,2.18753716 11.5040019,2.32335889 C11.3095198,2.46177252 11.1627942,2.63730698 11.0573603,2.84507639 C10.9519562,3.05254788 10.9038719,3.29666352 10.9038719,3.57072013 L10.9038719,3.58936992 C10.9038719,3.8519864 10.9541906,4.08603235 11.0636166,4.28495353 C11.1718211,4.48169989 11.3138396,4.64957781 11.4908041,4.78382056 C11.666845,4.91755685 11.8699967,5.01819423 12.0970117,5.08290245 C12.3217328,5.14701483 12.5520249,5.1795477 12.7827342,5.1795477 C13.2190976,5.1795477 13.5862542,5.09234651 13.8817908,4.92041688 C14.091884,4.79812072 14.2703679,4.65976668 14.4193279,4.50752956 L14.4193279,5.18380795 L15.3130879,5.18380795 L15.3130879,2.04191387 C15.3130879,1.41118744 15.1352892,0.913184376 14.7838926,0.561787739 Z M12.9271956,4.4135358 C12.7752266,4.4135358 12.6291266,4.39294953 12.4927984,4.35225366 C12.3576917,4.31212383 12.2370341,4.2541486 12.1340432,4.17987715 C12.0340612,4.1078103 11.94829,4.01652761 11.8900765,3.90844224 C11.8324289,3.80166771 11.7976319,3.68020573 11.7976319,3.54742278 L11.7976319,3.52877299 C11.7976319,3.26615651 11.9110798,3.06080026 12.1329706,2.90102577 C12.3611178,2.7366633 12.6949073,2.65336487 13.1195625,2.65336487 C13.4095876,2.65336487 13.6777156,2.67469594 13.9006492,2.71676225 C14.099183,2.75438954 14.2703679,2.79460874 14.4491199,2.83661546 L14.4491199,3.21345447 C14.4491199,3.38958477 14.403836,3.55177242 14.3275089,3.69563798 C14.2502285,3.84144003 14.1392831,3.96924771 14.0042061,4.07551577 C13.8676098,4.18288614 13.7049157,4.26686978 13.5238995,4.32508335 C13.3418406,4.38377359 13.13997,4.4135358 12.9271956,4.4135358 Z"/>
      </g>
    </g>
  </g>
</svg>
