<svg xmlns="http://www.w3.org/2000/svg" width="32" height="32" viewBox="0 0 32 32">
  <g fill="none" fill-rule="evenodd">
    <circle cx="16" cy="16" r="16" fill="#18132B"/>
    <path fill="#FFF" fill-rule="nonzero" d="M.638550014 6.03900013C.287100006 6.03900013 0 5.75190012 0 5.40045012L0 2.31660005C0 1.96515004.287100006 1.68300004.638550014 1.68300004.990000021 1.68300004 1.27710003 1.97010004 1.27710003 2.32155005L1.27710003 5.40540012C1.27215003 5.75190012.990000021 6.03900013.638550014 6.03900013zM3.33630007 6.03900013C3.14820007 6.03900013 2.96505006 5.95485013 2.84625006 5.81130013L1.55925003 4.27185009C1.36125003 4.03425009 1.36125003 3.69270008 1.55925003 3.45510007L2.84625006 1.91070004C3.07395007 1.63845004 3.47490008 1.60380003 3.74220008 1.82655004 4.00950009 2.04930004 4.04910009 2.45520005 3.82635008 2.72250006L3.82635008 2.72250006 2.88090006 3.86100008 3.82635008 4.99455011C4.04910009 5.26680011 4.01445009 5.66775012 3.74220008 5.89050013 3.62835008 5.98455013 3.48480008 6.03900013 3.33630007 6.03900013zM7.57350016 6.03900013L4.87575011 6.03900013C4.5243001 6.03900013 4.23720009 5.75190012 4.23720009 5.40045012L4.23720009 2.31660005C4.23720009 1.96515004 4.5243001 1.67805004 4.87575011 1.67805004 5.22720011 1.67805004 5.51430012 1.96515004 5.51430012 2.31660005L5.51430012 4.7619001 6.93990015 4.7619001 6.93990015 2.31660005C6.93990015 1.96515004 7.22700016 1.67805004 7.57845016 1.67805004 7.92990017 1.67805004 8.21700018 1.96515004 8.21700018 2.31660005L8.21700018 5.40045012C8.21205018 5.75190012 7.92495017 6.03900013 7.57350016 6.03900013 7.57350016 6.03900013 7.57350016 6.03900013 7.57350016 6.03900013zM11.8156503 6.03900013L9.1179002 6.03900013C8.76645019 6.02910013 8.48925018 5.73705012 8.49915018 5.38560012 8.50905018 5.04900011 8.78130019 4.7767501 9.1179002 4.7668501L11.1771002 4.7668501 11.1771002 4.7322001 8.93970019 4.09365009C8.66745019 4.01445009 8.47935018 3.76695008 8.47935018 3.47985008L8.47935018 2.31660005C8.47935018 1.96515004 8.76645019 1.68300004 9.1179002 1.68300004L11.8156503 1.68300004C12.1671003 1.68300004 12.4542003 1.97010004 12.4542003 2.32155005 12.4542003 2.67300006 12.1671003 2.96010006 11.8156503 2.96010006L9.75645021 2.96010006 9.75645021 2.99970007 11.9938503 3.63825008C12.2661003 3.71745008 12.4542003 3.96495009 12.4542003 4.25205009L12.4542003 5.40540012C12.4542003 5.75685012 12.1671003 6.03900013 11.8156503 6.03900013L11.8156503 6.03900013zM20.6811004 6.03900013C20.3296504 6.03900013 20.0475004 5.75190012 20.0475004 5.40045012L20.0475004 3.70260008 19.7505004 3.96000009C19.5129004 4.16295009 19.1614504 4.16295009 18.9189004 3.96000009L18.6219004 3.70260008 18.6219004 5.40045012C18.6219004 5.75190012 18.3348004 6.03900013 17.9833504 6.03900013 17.6319004 6.03900013 17.3448004 5.75190012 17.3448004 5.40045012 17.3448004 5.40045012 17.3448004 5.40045012 17.3448004 5.40045012L17.3448004 2.31660005C17.3448004 1.96515004 17.6319004 1.67805004 17.9833504 1.67805004 18.1368004 1.67805004 18.2803504 1.73250004 18.3991504 1.83150004L19.3347004 2.63340006 20.2653004 1.83150004C20.5326004 1.60380003 20.9335505 1.63350004 21.1662005 1.90080004 21.2652005 2.01465004 21.3196505 2.16315005 21.3196505 2.31660005L21.3196505 5.40045012C21.3246005 5.75190012 21.0375005 6.03900013 20.6811004 6.03900013L20.6811004 6.03900013 20.6811004 6.03900013zM16.4389504 6.03900013C16.0875003 6.03900013 15.8004003 5.75190012 15.8004003 5.40045012L15.8004003 4.86090011 14.2114503 2.95515006 13.9936503 2.95515006 13.9936503 4.7619001 14.9539503 4.7619001C15.3054003 4.7718001 15.5826003 5.06385011 15.5727003 5.41530012 15.5628003 5.75190012 15.2905503 6.02415013 14.9539503 6.03405013L13.3551003 6.03405013C13.0036503 6.03405013 12.7215003 5.74695012 12.7215003 5.39550012L12.7215003 2.31660005C12.7215003 1.96515004 13.0086003 1.68300004 13.3551003 1.68300004L14.5134003 1.68300004C14.7015003 1.68300004 14.8846503 1.76715004 15.0034503 1.91070004L16.9290004 4.22235009C17.0230504 4.33620009 17.0775004 4.4797501 17.0775004 4.6282501L17.0775004 5.40045012C17.0775004 5.75190012 16.7953504 6.03900013 16.4389504 6.03900013L16.4389504 6.03900013zM25.3093505 6.03900013C24.9579005 6.03900013 24.6708005 5.75190012 24.6708005 5.40045012L24.6708005 4.86090011 23.0818505 2.95515006 22.8591005 2.95515006 22.8591005 4.7619001 23.8194005 4.7619001C24.1708505 4.7718001 24.4480505 5.06385011 24.4381505 5.41530012 24.4282505 5.75190012 24.1560005 6.02415013 23.8194005 6.03405013L22.2255005 6.03405013C21.8740505 6.03405013 21.5869505 5.74695012 21.5869505 5.39550012L21.5869505 2.31660005C21.5869505 1.96515004 21.8740505 1.68300004 22.2255005 1.68300004L23.3838005 1.68300004C23.5719005 1.68300004 23.7501005 1.76715004 23.8738505 1.91070004L25.7994006 4.22235009C25.8934506 4.33620009 25.9479006 4.4797501 25.9479006 4.6282501L25.9479006 5.40045012C25.9479006 5.75685012 25.6608006 6.03900013 25.3093505 6.03900013L25.3093505 6.03900013zM13.9639503.128700003C13.9194003.0891000019 13.8699003.0594000013 13.8105003.0495000011 13.7362503.0396000009 13.6620003.0891000019 13.6125003.123750003 13.5630003.158400003 13.4640003.247500005 13.4244003.282150006 13.3848003.316800007 13.2858003.336600007 13.1224503.435600009 12.9591003.534600012 12.3255003.94050002 12.3255003.94050002L12.4888503.94050002 11.7513003 1.32165003 11.8255503 1.32165003 11.7216003 1.40085003C11.7810003 1.41570003 11.8404003 1.40580003 11.8948503 1.37610003L11.8948503 1.40085003C11.8948503 1.40085003 12.7710003 1.05435002 12.9393003 1.14345002L12.8353503 1.17315003C12.8452503 1.17315003 13.0086003 1.18305003 13.0086003 1.18305003 13.0185003 1.25235003 13.0581003 1.31670003 13.1175003 1.35135003 13.2165003 1.41570003 13.2214503 1.45530003 13.2214503 1.45530003 13.2214503 1.45530003 13.1719503 1.47510003 13.1719503 1.50480003 13.2660003 1.47510003 13.3650003 1.47510003 13.4541003 1.50480003 13.4541003 1.50480003 13.4491503 1.47510003 13.3798503 1.45530003 13.3105503 1.42560003 13.2511503 1.38105003 13.2066003 1.31670003 13.1670003 1.26225003 13.1521503 1.19295003 13.1769003 1.12860002 13.2016503 1.06425002 13.2858003 1.02960002 13.4590503.94050002 13.6620003.836550018 13.7115003.757350016 13.7362503.693000015 13.7610003.628650014 13.8105003.509850011 13.8303003.45045001 13.8501003.396000009 13.8847503.351450008 13.9293003.311850007 13.9837503.282150006 14.0431503.257400006 14.0976003.237600005 14.1075003.242550005 13.9986003.153450003 13.9639503.128700003z" transform="translate(3 12)"/>
  </g>
</svg>
