<svg xmlns="http://www.w3.org/2000/svg" width="32" height="32" viewBox="0 0 32 32">
  <defs>
    <linearGradient id="near-protocol-a" x1="4.863%" x2="95.415%" y1="96.732%" y2="3.35%">
      <stop offset="21%" stop-color="#24272A"/>
      <stop offset="42%" stop-color="#24272A" stop-opacity="0"/>
      <stop offset="59%" stop-color="#24272A" stop-opacity="0"/>
      <stop offset="81%" stop-color="#24272A"/>
    </linearGradient>
  </defs>
  <g fill="none" fill-rule="evenodd">
    <circle cx="16" cy="16" r="16" fill="#F5F7F9"/>
    <g fill-rule="nonzero" transform="translate(5 13)">
      <path fill="url(#near-protocol-a)" d="M0.683999959,5.93999965 C0.875999948,5.93999965 1.06799994,5.85599965 1.19999993,5.69999966 L5.84399965,0.323999981 C5.71199966,0.119999993 5.49599967,3.55271368e-15 5.26799969,3.55271368e-15 C5.0759997,3.55271368e-15 4.88399971,0.083999995 4.75199972,0.227999986 L0.083999995,5.59199967 C0.203999988,5.80799965 0.431999974,5.93999965 0.683999959,5.93999965 L0.683999959,5.93999965 Z"/>
      <path fill="#24272A" d="M.683999959 5.93999965C.791999953 5.93999965.899999946 5.91599965.995999941 5.86799965L.995999941 1.36799992 4.60799973 5.69999966C4.73999972 5.85599965 4.93199971 5.93999965 5.13599969 5.93999965L5.27999969 5.93999965C5.65199966 5.93999965 5.96399964 5.63999966 5.96399964 5.25599969L5.96399964.683999959C5.93999965.299999982 5.63999966-7.10542736e-15 5.26799969-7.10542736e-15 5.15999969-7.10542736e-15 5.0519997.0239999986 4.9559997.0719999957L4.9559997 4.57199973 1.34399992.239999986C1.21199993.083999995 1.01999994-7.10542736e-15.815999951-7.10542736e-15L.683999959-7.10542736e-15C.299999982-7.10542736e-15 9.76996262e-15.299999982 9.76996262e-15.683999959L9.76996262e-15 5.26799969C9.76996262e-15 5.63999966.299999982 5.93999965.683999959 5.93999965zM11.3039993 1.23599993L11.3039993 4.70399972C11.3039993 4.72799972 11.2799993 4.75199972 11.2559993 4.75199972L10.8959994 4.75199972C10.7279994 4.75199972 10.5719994 4.66799972 10.4759994 4.52399973L8.84399947 2.00399988 8.90399947 3.26399981 8.90399947 4.70399972C8.90399947 4.72799972 8.87999947 4.75199972 8.85599947 4.75199972L8.3759995 4.75199972C8.3519995 4.75199972 8.3279995 4.72799972 8.3279995 4.70399972L8.3279995 1.23599993C8.3279995 1.21199993 8.3519995 1.18799993 8.3759995 1.18799993L8.73599948 1.18799993C8.90399947 1.18799993 9.05999946 1.27199992 9.15599945 1.41599992L10.7879994 3.93599977 10.7399994 2.67599984 10.7399994 1.23599993C10.7399994 1.21199993 10.7639994 1.18799993 10.7879994 1.18799993L11.2679993 1.18799993C11.2919993 1.18799993 11.3039993 1.21199993 11.3039993 1.23599993L11.3039993 1.23599993zM16.187999 4.75199972L15.6839991 4.75199972C15.6599991 4.75199972 15.6359991 4.72799972 15.6359991 4.70399972L15.6359991 4.69199972 16.967999 1.23599993C16.979999 1.21199993 17.003999 1.18799993 17.039999 1.18799993L17.6759989 1.18799993C17.7119989 1.18799993 17.7359989 1.21199993 17.7479989 1.23599993L19.0799989 4.69199972C19.0919989 4.71599972 19.0799989 4.75199972 19.0439989 4.75199972L19.0319989 4.75199972 18.5279989 4.75199972C18.5039989 4.75199972 18.4919989 4.73999972 18.4799989 4.71599972L17.399999 1.87199989C17.387999 1.84799989 17.363999 1.83599989 17.339999 1.84799989 17.327999 1.84799989 17.315999 1.85999989 17.315999 1.87199989L16.235999 4.71599972C16.223999 4.73999972 16.199999 4.75199972 16.187999 4.75199972zM22.5839987 4.67999972L21.5759987 3.3959998C22.1399987 3.2879998 22.4759987 2.90399983 22.4759987 2.31599986 22.4759987 1.6439999 22.0439987 1.18799993 21.2639987 1.18799993L19.8599988 1.18799993C19.8239988 1.18799993 19.7879988 1.22399993 19.7879988 1.25999992 19.7879988 1.52399991 20.0039988 1.7399999 20.2679988 1.7399999L21.2039987 1.7399999C21.6719987 1.7399999 21.8999987 1.97999988 21.8999987 2.32799986 21.8999987 2.67599984 21.6839987 2.92799983 21.2039987 2.92799983L19.8599988 2.92799983C19.8239988 2.92799983 19.7879988 2.96399982 19.7879988 2.99999982L19.7879988 4.71599972C19.7879988 4.73999972 19.8119988 4.76399972 19.8359988 4.76399972L20.3159988 4.76399972C20.3399988 4.76399972 20.3639988 4.73999972 20.3639988 4.71599972L20.3639988 3.4319998 20.9159988 3.4319998 21.7799987 4.57199973C21.8759987 4.69199972 22.0199987 4.76399972 22.1759987 4.76399972L22.5359987 4.76399972C22.5599987 4.76399972 22.5839987 4.73999972 22.5839987 4.71599972 22.5839987 4.69199972 22.5839987 4.67999972 22.5839987 4.67999972L22.5839987 4.67999972zM14.6759991 1.18799993L12.4679993 1.18799993C12.4319993 1.18799993 12.3959993 1.21199993 12.3959993 1.25999992 12.3959993 1.52399991 12.6119992 1.7399999 12.8759992 1.7399999L14.6759991 1.7399999C14.6999991 1.7399999 14.7239991 1.7159999 14.7239991 1.6919999L14.7239991 1.23599993C14.7239991 1.21199993 14.6999991 1.18799993 14.6759991 1.18799993L14.6759991 1.18799993zM14.6759991 4.19999975L13.0199992 4.19999975C12.9959992 4.19999975 12.9719992 4.17599975 12.9719992 4.15199984L12.9719992 3.25199981C12.9719992 3.22799981 12.9959992 3.20399981 13.0199992 3.20399981L14.5439991 3.20399981C14.5679991 3.20399981 14.5919991 3.17999981 14.5919991 3.15599981L14.5919991 2.69999984C14.5919991 2.67599984 14.5679991 2.65199984 14.5439991 2.65199984L12.4679993 2.65199984C12.4319993 2.65199984 12.3959993 2.68799984 12.3959993 2.72399984L12.3959993 4.67999972C12.3959993 4.71599972 12.4319993 4.75199972 12.4679993 4.75199972L14.6759991 4.75199972C14.6999991 4.75199972 14.7239991 4.72799972 14.7239991 4.70399972L14.7239991 4.24799975C14.7239991 4.22399975 14.6999991 4.19999975 14.6759991 4.19999975L14.6759991 4.19999975z"/>
    </g>
  </g>
</svg>
