<svg xmlns="http://www.w3.org/2000/svg" width="32" height="32" viewBox="0 0 32 32">
  <g fill="none" fill-rule="evenodd">
    <circle cx="16" cy="16" r="16" fill="#F5F7F9"/>
    <g fill-rule="nonzero" transform="translate(3 13)">
      <path fill="#1E1E1E" d="M6.08850975,2.45639876 C5.59776215,2.45035548 5.13451384,2.68250132 4.84561397,3.07924631 C4.51388472,3.48834458 4.33696088,4.00127505 4.34593627,4.52789173 C4.32924548,4.86659647 4.44124202,5.19908618 4.65945953,5.45866391 C4.86866072,5.69637377 5.17454431,5.82614256 5.49085603,5.81137758 C5.95841156,5.81099351 6.39937283,5.59387307 6.68476381,5.22352147 C7.03874291,4.79884293 7.22979334,4.2619168 7.22363191,3.70909215 C7.23777848,3.38500855 7.14481258,3.06528456 6.95909666,2.79931483 C6.77294222,2.57396998 6.47901417,2.45639876 6.08850975,2.45639876 Z M6.10810495,4.94219033 C5.95059091,5.10305743 5.73558217,5.1947005 5.51045124,5.19692798 C5.35893661,5.20523069 5.21281782,5.13947724 5.11854716,5.02057114 C5.01594992,4.87924585 4.96639662,4.70630483 4.97858142,4.53209071 C4.96485416,4.15955886 5.07134221,3.79249406 5.28230708,3.48514696 C5.4499287,3.2203113 5.74291716,3.06136638 6.05631763,3.06524974 C6.40716509,3.06524974 6.58305537,3.28033042 6.58398847,3.7104918 C6.58997073,4.16703521 6.41949449,4.60826784 6.10810495,4.94219033 L6.10810495,4.94219033 Z M25.0538677,4.0030202 C24.9052604,3.95168027 24.7423264,4.0245718 24.6815588,4.16957944 C24.4086256,4.85541157 24.0755072,5.19692798 23.6640079,5.19692798 C23.4484606,5.19692798 23.340687,5.01077354 23.340687,4.65945953 C23.3674174,4.26081758 23.4254487,3.86489425 23.5142445,3.47534936 L23.602423,3.06385008 L24.4422174,3.06385008 C24.586669,3.06518163 24.7106757,2.96134835 24.7347458,2.81891003 C24.752686,2.73063084 24.7303244,2.63894993 24.673753,2.5688447 C24.6171816,2.49873947 24.5322942,2.45751366 24.4422174,2.45639876 L23.7423887,2.45639876 L23.8823544,1.77196629 C23.9020128,1.67958018 23.879357,1.58324284 23.8205833,1.5093017 C23.7618096,1.43536056 23.6730681,1.39155293 23.5786288,1.38985981 C23.4315902,1.38764863 23.3038928,1.49063044 23.2749031,1.63479986 L23.0943473,2.44660116 L21.1348269,2.44660116 C20.6413708,2.44214393 20.1766311,2.67816902 19.8891318,3.07924631 C19.5574026,3.48834458 19.3804788,4.00127505 19.3894542,4.52789173 C19.3894134,4.66928543 19.4058536,4.81020201 19.4384422,4.94778896 C19.3106152,5.0974441 19.1256792,5.18635563 18.9289669,5.192729 C18.8288533,5.20236791 18.7304201,5.1620522 18.6658313,5.08495538 C18.605461,4.97820798 18.578179,4.85592636 18.5874505,4.73364137 C18.6005393,4.38052729 18.6474085,4.02947763 18.7274162,3.68529797 L19.2354918,1.31707763 C19.2741423,1.14972108 19.1698054,0.982719398 19.0024489,0.944068925 C18.8350923,0.905418453 18.6680906,1.00975534 18.6294402,1.17711188 L18.3355121,2.62295799 C18.1283617,2.49903767 17.8910569,2.43462635 17.64968,2.43680356 C17.1583612,2.42958377 16.6903384,2.64583191 16.3773914,3.02465967 C16.0337896,3.44290499 15.8533002,3.97144576 15.8693158,4.5124955 C15.8659084,4.68437349 15.8890417,4.85574816 15.937899,5.02057114 C15.8179808,5.12459741 15.6655139,5.18350506 15.5068045,5.18713037 C15.4018362,5.1965151 15.2984471,5.15671029 15.226873,5.07935675 C15.1580372,4.97584023 15.1269028,4.85179646 15.1386946,4.72804274 C15.1491583,4.49219394 15.1819638,4.25786882 15.2366706,4.02821404 C15.254058,3.93991414 15.2336898,3.84836744 15.1805043,3.77576926 C15.1273188,3.70317107 15.0461725,3.65615049 14.9567391,3.64610756 C14.7996022,3.62596655 14.6524724,3.72726904 14.6152227,3.88125001 C14.5332891,4.21654356 14.3868676,4.53268076 14.1841282,4.81202219 C14.0404149,5.03352272 13.800897,5.17453763 13.5374865,5.192729 C13.4002241,5.19002318 13.2743856,5.11568818 13.2057677,4.99677697 C13.1152689,4.83958758 13.0706576,4.66017236 13.0769992,4.47890372 C13.0589087,4.11214429 13.1654633,3.75005614 13.3793252,3.45155518 C13.5612585,3.18843609 13.8628943,3.03393973 14.1827286,3.0400559 C14.3444289,3.04127437 14.5042792,3.07457651 14.6530135,3.13803192 C14.7430969,3.18211812 14.849882,3.17464316 14.9329449,3.11843672 C15.0310885,3.05984805 15.0877989,2.95091863 15.079508,2.83691843 C15.0712171,2.72291823 14.9993425,2.62334045 14.8937545,2.57956861 C14.8153356,2.54553325 14.7337641,2.51928035 14.6502141,2.5011878 C14.5001717,2.4592475 14.3454791,2.43620817 14.1897269,2.43260458 C13.7031087,2.43059596 13.241068,2.64621494 12.9300352,3.0204607 C12.7444187,3.2290999 12.6072425,3.4762083 12.5283335,3.74408358 L12.5283335,3.74408358 C12.2246079,4.70844754 11.8341034,5.17873243 11.3638185,5.17873243 C11.2272904,5.18955932 11.0945563,5.1305664 11.0111049,5.0219708 C10.9334014,4.9107937 10.8954337,4.77667373 10.9033313,4.64126398 C10.9008919,4.59856065 10.9041871,4.55572302 10.9131289,4.51389516 C11.196542,4.4034386 11.4440169,4.21698484 11.6283538,3.97502705 C11.8073984,3.74579266 11.9057963,3.46388277 11.9082853,3.17302336 C11.9082853,2.68314326 11.6451497,2.43820321 11.1062816,2.43820321 C10.7319895,2.43641528 10.3725748,2.58461711 10.1083258,2.84970249 L10.4414443,1.31007934 C10.4604304,1.21879182 10.4372253,1.12381054 10.3782852,1.05156135 C10.3193451,0.979312161 10.2309593,0.937504611 10.1377186,0.937770467 C9.9906801,0.935559283 9.86298266,1.03854109 9.83399299,1.18271051 L8.92421567,5.43067076 C8.90473211,5.52178983 8.9275565,5.61683068 8.98629391,5.68916471 C9.04503131,5.76149873 9.13336356,5.80334524 9.22654167,5.80297964 L9.22654167,5.80297964 C9.37144656,5.7984204 9.493136,5.69252718 9.51767041,5.54964164 L9.79760189,4.24796025 C9.84576361,4.07517297 9.91142061,3.90774763 9.99355393,3.74828255 C10.0965924,3.56505169 10.2367486,3.40534987 10.4050532,3.27939732 C10.5756666,3.1311501 10.7949016,3.05093001 11.0209025,3.05405248 C11.0857282,3.04449714 11.1512526,3.06617675 11.1975866,3.11251077 C11.2439206,3.15884478 11.2656003,3.22436917 11.2560449,3.28919492 C11.2400601,3.49697146 11.1323107,3.68681564 10.9621169,3.80706816 C10.7840624,3.96752829 10.5633655,4.07301557 10.3266724,4.11079382 C10.3070772,4.29694826 10.2972796,4.43411469 10.2972796,4.5124955 C10.2822222,4.84925962 10.3781065,5.18165853 10.5702128,5.45866391 C10.758706,5.69554375 11.052122,5.82391325 11.3540209,5.80157998 C11.771776,5.79777271 12.164772,5.60282193 12.4205599,5.27250948 L12.5381311,5.13254374 C12.5824285,5.24662154 12.6453329,5.35256577 12.7242855,5.446067 C12.9149685,5.6803197 13.2048918,5.81101858 13.506694,5.79878066 C13.9265913,5.79878066 14.2807046,5.60282863 14.5746326,5.19132935 C14.7006018,5.60282863 14.9945299,5.79878066 15.48441,5.79878066 C15.7595604,5.79532727 16.0250716,5.69693486 16.236026,5.52024884 C16.4251256,5.69752854 16.67677,5.79265014 16.9358547,5.78478409 C17.3557519,5.78478409 17.7084656,5.58883205 18.0023937,5.17733277 C18.1297625,5.58883205 18.4222909,5.78478409 18.912171,5.78478409 C19.2230658,5.78790905 19.5234334,5.67226752 19.7519654,5.46146323 C19.9579301,5.67715179 20.2461054,5.79476394 20.5441715,5.78478409 C21.0118266,5.78482715 21.4529662,5.56761891 21.7380793,5.19692798 C22.0904931,4.77408876 22.2814439,4.23992249 22.2769474,3.68949694 C22.2812068,3.46554393 22.241254,3.24294976 22.1593762,3.03445727 L22.9725771,3.03445727 L22.8941963,3.38717094 C22.7942032,3.79525408 22.7286555,4.21101347 22.6982443,4.63006672 C22.6982443,5.39288001 23.0117675,5.78478409 23.6276168,5.78478409 C24.3274455,5.78478409 24.8509174,5.3144992 25.2232262,4.38512668 C25.256188,4.31241885 25.2565392,4.2290969 25.2241914,4.15611384 C25.1918436,4.08313078 25.1298745,4.02743059 25.0538677,4.0030202 Z M18.1143662,3.63071133 C18.0065926,4.16957944 17.8344348,4.56148351 17.6342838,4.81622116 C17.4341327,5.07095881 17.2045889,5.19692798 16.9694465,5.19692798 C16.8318367,5.19415945 16.7056071,5.11990671 16.636328,5.00097594 C16.5480815,4.84650258 16.5040185,4.67073465 16.5089592,4.4929003 C16.4907163,4.12591027 16.597822,3.76362634 16.8126849,3.46555176 C16.9577453,3.24267185 17.1933122,3.09468346 17.4570653,3.06073772 C17.7208183,3.02679198 17.9861807,3.11030937 18.1829495,3.28919492 L18.1143662,3.63071133 Z M21.5211324,4.36553147 C21.4263502,4.56774606 21.3079545,4.7580248 21.1684187,4.93239273 C21.0130946,5.09765599 20.7975306,5.19306958 20.570765,5.19692798 C20.4196442,5.20524428 20.2739415,5.13944306 20.1802606,5.02057114 C20.0776634,4.87924585 20.02811,4.70630483 20.0402948,4.53209071 C20.0267525,4.15978742 20.1326932,3.79291882 20.3426208,3.48514696 C20.5119333,3.22212673 20.8038309,3.06377361 21.1166314,3.06523951 C21.4693451,3.06523951 21.6457019,3.28033042 21.6457019,3.7104918 C21.6389357,3.93467676 21.5944576,4.15612085 21.5141341,4.36553147 L21.5211324,4.36553147 Z M8.74086055,0.93913519 C8.593822,0.936958941 8.46612456,1.03994075 8.43713489,1.18411017 L7.52735757,5.43207042 C7.50787401,5.52318949 7.53069841,5.61823034 7.58943581,5.69056436 C7.64817321,5.76289839 7.73650546,5.80474489 7.82968357,5.80441423 C7.97672212,5.80659048 8.10441956,5.70360867 8.13340923,5.55943925 L9.04458621,1.311479 C9.06197824,1.22041245 9.03817308,1.12631802 8.97956707,1.05447839 C8.92096105,0.982638761 8.83356455,0.940421484 8.74086055,0.93913519 Z M2.23105392,0 C1.00078933,0.00460490643 0.00460490643,1.00078933 -1.52931418e-08,2.23105392 C-1.52931418e-08,2.4774761 0.0396713006,2.72229131 0.117571223,2.95607646 C0.175639897,3.11492572 0.347554685,3.20088311 0.509475299,3.1520285 C0.666607132,3.09231644 0.750038776,2.9205454 0.699828707,2.76012442 C0.633561548,2.57831851 0.604064617,2.38516118 0.613049947,2.19186351 C0.638853083,1.32211314 1.35119302,0.630325546 2.221326,0.62998925 C3.09145898,0.629652955 3.80433344,1.32088972 3.83080887,2.19061989 C3.85728429,3.06035005 3.18777464,3.79366792 2.31923233,3.84625857 C2.31923233,3.84625857 2.00710873,3.86585378 1.8503471,3.88544898 C1.79286403,3.89356142 1.73586148,3.90477504 1.6795889,3.91904076 C1.67123042,3.92530962 1.65953429,3.9244784 1.65214637,3.91709048 C1.64475845,3.90970255 1.64392723,3.89800643 1.65019609,3.88964795 L1.6991841,3.6251127 L1.99311216,2.2940385 C2.02828408,2.12900099 1.92300722,1.96669917 1.75796971,1.93152724 C1.5929322,1.89635531 1.43063037,2.00163216 1.39545844,2.16666968 C1.39545844,2.16666968 0.695629735,5.41667419 0.695629735,5.446067 C0.676153348,5.5253182 0.690177106,5.60909251 0.734401619,5.67768023 C0.778626132,5.74626795 0.849146947,5.79361366 0.929372523,5.80857827 C1.00879727,5.82760703 1.09255088,5.81321831 1.16107088,5.76877291 C1.22959088,5.7243275 1.27687673,5.65371765 1.29188379,5.57343582 C1.30168139,5.53424541 1.38985981,5.10315093 1.38985981,5.10315093 C1.45638639,4.77814965 1.71836591,4.52901774 2.04629914,4.47890372 C2.11348269,4.46910612 2.39761315,4.44951092 2.39761315,4.44951092 C3.57658745,4.34054407 4.46479523,3.32908536 4.42050542,2.1459148 C4.37621561,0.962744236 3.41487531,0.0205199529 2.23105392,0 Z"/>
      <path fill="#E6007A" d="M25.7033087,5.13814237 C25.6058385,5.11838263 25.5045124,5.13828962 25.4217626,5.19345618 C25.3390127,5.24862275 25.2816654,5.33449803 25.2624167,5.43207042 C25.2414638,5.52965424 25.2608781,5.631564 25.3162415,5.71460922 C25.371605,5.79765445 25.4582085,5.85477136 25.5563447,5.87296251 C25.6538711,5.89514674 25.756229,5.87621348 25.8393672,5.82061151 C25.9225053,5.76500955 25.9790943,5.6776408 25.9958371,5.57903445 C26.0300724,5.37787692 25.9019566,5.18478377 25.7033087,5.13814237 L25.7033087,5.13814237 Z"/>
    </g>
  </g>
</svg>
