<svg xmlns="http://www.w3.org/2000/svg" width="32" height="32" viewBox="0 0 32 32">
  <g fill="none">
    <circle cx="16" cy="16" r="16" fill="#000"/>
    <path fill="#0FB" d="M10.19,17.4425 L6.8705,14.0755 L10.1905,14.0755 L10.1905,17.4425 L10.19,17.4425 Z M10.19,25.018 L6.8705,25.018 L10.1905,21.651 L10.1905,25.018 L10.19,25.018 Z M13.925,17.4425 L10.605,17.4425 L10.605,14.075 L13.925,14.075 L13.925,17.442 L13.925,17.4425 Z M21.395,17.4425 L18.075,17.4425 L18.075,14.075 L21.395,14.075 L21.395,17.442 L21.395,17.4425 Z M17.66,17.4425 L14.34,17.4425 L14.34,14.075 L17.66,14.075 L17.66,17.442 L17.66,17.4425 Z M13.925,25.018 L10.605,25.018 L10.605,21.651 L13.925,21.651 L13.925,25.018 Z M21.395,25.018 L18.075,25.018 L18.075,21.651 L21.395,21.651 L21.395,25.018 Z M17.66,25.018 L14.34,25.018 L14.34,21.651 L17.66,21.651 L17.66,25.018 Z M21.81,25.018 L21.81,21.651 L25.1295,21.651 L21.8095,25.018 L21.81,25.018 Z M25.1295,17.4425 L21.8095,17.4425 L21.8095,14.075 L25.1295,17.442 L25.1295,17.4425 Z M25.1295,21.23 L21.8095,21.23 L21.8095,17.8635 L25.1295,17.8635 L25.1295,21.23 Z M13.925,9.867 L10.605,9.867 L10.605,6.5 L13.925,6.5 L13.925,9.867 Z M10.19,9.867 L6.8705,9.867 L10.1905,6.5 L10.1905,9.867 L10.19,9.867 Z M21.395,9.867 L18.075,9.867 L18.075,6.5 L21.395,6.5 L21.395,9.867 Z M17.66,9.867 L14.34,9.867 L14.34,6.5 L17.66,6.5 L17.66,9.867 Z M21.81,9.867 L21.81,6.5 L25.1295,6.5 L21.8095,9.867 L21.81,9.867 Z M10.19,13.6545 L6.8705,13.6545 L6.8705,10.288 L10.1905,10.288 L10.1905,13.6545 L10.19,13.6545 Z"/>
  </g>
</svg>
