<svg xmlns="http://www.w3.org/2000/svg" xmlns:xlink="http://www.w3.org/1999/xlink" width="32" height="32" viewBox="0 0 32 32">
  <defs>
    <circle id="luna-card-logo-a" cx="16" cy="16" r="16"/>
    <circle id="luna-card-logo-c" cx="16" cy="16" r="16"/>
  </defs>
  <g fill="none" fill-rule="evenodd">
    <circle cx="16" cy="16" r="16" fill="#FFF" fill-rule="nonzero"/>
    <mask id="luna-card-logo-b" fill="#fff">
      <use xlink:href="#luna-card-logo-a"/>
    </mask>
    <path fill="#2642B4" fill-rule="nonzero" d="M6.1575,4.643 C6.469,8.043 8.575,9.813 10.7565,10.317 C12.2105,10.6535 17.8805,8.8645 27.7665,4.951 L22.292,-1.733 L5.166,1.1275 C5.6195,1.2045 5.95,2.3765 6.1575,4.6425 L6.1575,4.643 Z M30.153,19.663 C29.2735,23.349 28.4965,25.6425 23.928,28.323 C19.3595,31.0035 18.318,31.252 15.2595,27.755 C12.2005,24.2575 13.8705,20.562 16.874,19.2915 C19.877,18.0215 31.0325,15.9765 30.153,19.663 Z" mask="url(#luna-card-logo-b)"/>
    <mask id="luna-card-logo-d" fill="#fff">
      <use xlink:href="#luna-card-logo-c"/>
    </mask>
    <path fill="#4393FF" fill-rule="nonzero" d="M-2.1415,7.64294535 C1.479,10.429 9.6535,20.453 9.857,24.872 C9.993,27.8185 9.817,31.1345 9.3295,34.821 L-8.694,19.4915 C-4.3475,11.5755 -2.1635,7.626 -2.1415,7.64294535 Z M0.7915,8.789 C2.9,9.1175 9.1465,7.6415 11.393,4.42 C13.639,1.1985 10.8215,1.219 7.56,1.849 C4.299,2.479 -1.317,8.46 0.7915,8.789 Z M29.7345,5.914 C23.923,2.3 23.575,2.203 14.3185,5.6325 C5.062,9.062 8.94,16.3645 16,18.798 C23.06,21.232 28.214,23.353 31.51,21.5155 C34.8065,19.6775 35.5455,9.5285 29.7345,5.914 Z M30.804,23.623 C27.645,24.018 23.4875,26.281 21.728,27.788 C19.9685,29.296 20.901,30.795 23.6645,30.434 C26.4275,30.073 33.9625,23.228 30.804,23.623 L30.804,23.623 Z" mask="url(#luna-card-logo-d)"/>
  </g>
</svg>
